<svg xmlns="http://www.w3.org/2000/svg" viewBox="0 0 437 117" xml:space="preserve" style="fill-rule:evenodd;clip-rule:evenodd;stroke-linejoin:round;stroke-miterlimit:1.41421"><path d="M324.6 53.69v-52H341v85.5c-1.15.12-2.33.28-3.52.34s-2.48 0-4.05 0L281.7 33.7v53.47h-16.53V1.71h8.36l50 52.16 1.07-.18ZM86.2 87.35H67.93c-2.88-6.53-5.73-13-8.64-19.63H27.2c-3.007 6.467-6.04 13.003-9.1 19.61H0L40 1.66h7.6l38.6 85.69ZM43.57 31.58c-3.24 7.07-6.08 13.26-9 19.69h17.62c-2.87-6.54-5.54-12.65-8.62-19.69ZM390.9 1.6h7.56C411.2 29.86 424 58.25 437 87.12h-18.27l-8.59-19.44h-32c-2.967 6.34-6.017 12.863-9.15 19.57h-18.07c13.42-28.76 26.64-57.06 39.98-85.65Zm12.21 49.79c-2.91-6.65-5.67-13-8.66-19.83l-9 19.83h17.66ZM208.7 61.57v19.9c-11.9 9.34-37.92 12.16-55.39-5-16.72-16.39-17.93-42-2.93-60.43 15.14-18.62 42-20.25 58.26-9.06V27c-1.62-1.26-2.76-2.12-3.87-3-4.64-3.72-9.67-6.55-15.63-7.6-14.648-2.536-28.848 7.194-31.77 21.77-2.89 14 3.72 27.61 16.35 32.69 9.12 3.67 18.11 2.94 26.37-2.78 2.73-1.92 5.3-4.01 8.61-6.51ZM95.58 1.7h16.32v69.93h23.88v15.54h-40.2V1.7ZM226.7 1.76H243V87.1h-16.3zM274.27 97.67c5.71-.06 10.3 4.22 10.28 9.59-.02 5.37-4.33 9.36-10 9.53a9.55 9.55 0 0 1-.561.016c-5.25 0-9.57-4.32-9.57-9.57s4.32-9.57 9.57-9.57c.087 0 .174.002.261.004h.02Zm.28 16.13c.084.003.169.005.253.005 3.61 0 6.58-2.97 6.58-6.58 0-.068-.001-.137-.003-.205-.244-3.618-3.288-6.465-6.914-6.465-3.709 0-6.795 2.978-6.926 6.685-.04 3.76 2.97 6.6 7.01 6.56ZM127.68 97.67c5.7 0 10 4 10 9.44 0 5.57-4.32 9.72-10.17 9.69a9.26 9.26 0 0 1-.334.006c-5.156 0-9.4-4.243-9.4-9.4 0-.089.001-.177.004-.266.04-5.54 4.22-9.49 9.9-9.47Zm-.12 16.13c4.2 0 6.93-2.56 6.92-6.62l.001-.1c0-3.599-2.962-6.56-6.56-6.56h-.071a6.734 6.734 0 0 0-.426-.014c-3.55 0-6.47 2.921-6.47 6.47 0 .095.002.189.006.284.04 3.94 2.57 6.48 6.6 6.54ZM314.44 116.34c-4-.07-5-3.59-7.13-5.61-2.13-2.02-4.12-4.6-6.86-6.74v12.23l-2.77-.16V98.51c1.95-1.17 2.92.1 3.91 1.23 2.46 2.83 4.9 5.67 7.36 8.5a7.735 7.735 0 0 0 3 2.39V98.3l2.46-.27.03 18.31ZM101.61 107.86l5.18 7.86c-1.94 1.14-3.14.66-4.14-1a25.034 25.034 0 0 0-2.8-4A27.073 27.073 0 0 0 96 108c-.19 3.31-.31 5.63-.45 8.12H93V98.16c3.66 0 7.31-1.27 9.89 2.18 1.57 2.13 1.21 3.89-1.28 7.52Zm-5.7-2.47c3.4.23 4.93-.55 4.61-2.34-.45-2.55-2.3-2.76-4.61-2.29v4.63ZM339.37 111.13h-7l-2.54 5h-3c2.68-6.25 5.19-12.14 8-18.64 1.13.79 2.27 1.16 2.62 1.9 2.52 5.38 4.88 10.84 7.32 16.32-2.66.57-2.66.57-5.4-4.58Zm-1.23-2.92c-.81-1.86-1.47-3.4-2.42-5.59l-2.25 5.59h4.67ZM175.86 116.06V98.44c6.61-1.15 9.4-.75 10.52 1.86-1.35.09-2.53.19-3.71.23-1.18.04-2.21 0-3.61 0v4.52c2.32.55 4.62 1.09 6.91 1.69a7.137 7.137 0 0 1 0 1.56l-7 .57v4.66l7.14.39c-.25 2.78-2.11 3.14-10.25 2.14ZM71.06 116.17H68V98.09a55.645 55.645 0 0 1 7.65.08 5.194 5.194 0 0 1 4.103 5.067 5.19 5.19 0 0 1-3.423 4.873c-1.723.42-3.474.714-5.24.88l-.03 7.18Zm0-10.15a26.355 26.355 0 0 0 4.92-1.4c.41-.2.54-2 .14-2.62-1.16-2-3.08-1.55-5.06-1.27v5.29ZM229.86 114c2-2.34 1-3.62-.35-4.68-1.35-1.06-2.78-1.68-4-2.7a4.873 4.873 0 0 1-.74-7.25c1.81-2 6.15-2.34 7.9-.56.55.57.62 1.62 1.1 3-2-.58-3.21-1.22-4.46-1.23-1.05 0-2.1.75-3.15 1.16l-.84 1.54c1.17.66 2.37 1.28 3.52 2a23.588 23.588 0 0 1 3.39 2.31 5.014 5.014 0 0 1 1.45 6.1c-1 2.41-3.15 3.17-5.5 3a21.03 21.03 0 0 1-4.36-1.24c-.06-1.17-.11-2.1-.16-3l6.2 1.55ZM200.18 115.51c-.1-1.28-.18-2.3-.28-3.54 5.22 2.62 6 2.58 8.17-.84-1.89-1.38-3.85-2.77-5.76-4.23-3.14-2.41-3.28-6.05-.36-8.16 1.93-1.41 4.09-1.37 7.56.21.05.72.1 1.54.16 2.37l-6.28-.78-.74 1.1a12.696 12.696 0 0 0 1.82 3c1.07 1 2.53 1.58 3.71 2.49a5.565 5.565 0 0 1 2 6.62 5.496 5.496 0 0 1-6.28 2.88c-1.1-.23-2.14-.63-3.72-1.12ZM152 98.11h9.55l.38 2.27-6.67.31v4.5l6.41.4.17 2.26-6.67.35c-.15 2.6-.3 5.14-.46 7.87H152V98.11ZM360.55 113.54l7.81.35.51.69c-.57.59-1.1 1.66-1.7 1.69-2.95.18-5.92.09-9.14.09v-18l2.52-.37v15.55ZM248 98.21h2.67v17.86l-2.67.12V98.21Z" style="fill:#252532;fill-rule:nonzero"/></svg>