<svg xmlns="http://www.w3.org/2000/svg" viewBox="0 0 427 149" xml:space="preserve" style="fill-rule:evenodd;clip-rule:evenodd;stroke-linejoin:round;stroke-miterlimit:1.41421"><path d="M356.18 27.76c21.3.19 38.64 13.3 43.53 31.9 5.76 21.89-7.79 45.13-29.76 51-20.18 5.42-40.29-2.28-50.6-19.39-10.886-18.175-6.132-41.925 10.91-54.51a44.17 44.17 0 0 1 25.92-9Zm1.41 69.45c15.7 0 28.49-12.48 28.41-27.62-.08-15.14-13-27.71-28.49-27.65-15.76.07-28.92 12.75-28.75 27.72.17 15.34 13 27.6 28.83 27.55ZM122.51 29.84h18.74c8.46 19.36 17 38.91 25.85 59.19l28-59.22h17c-.46 1.19-.72 2-1.08 2.78-15.467 33.12-30.947 66.257-46.44 99.41-4 8.51-10.59 13.58-19.93 15-1.41.21-2.87.15-5 .24 6.4-13.55 12.53-26.56 18.76-39.79l-35.9-77.61ZM237.54 44.3v66.22h-15.61V30c1.06-.07 1.94-.18 2.81-.18h50.92c7.54 0 14.22 2.11 19.64 7.53a22.484 22.484 0 0 1 6.66 16c.25 18.61.13 37.23.14 55.84a9.21 9.21 0 0 1-.23 1.41h-15.19c-.06-1-.16-2-.16-3.06V64a49.843 49.843 0 0 0-.73-9.78c-1.27-6.25-5.49-10-11.91-10.1-11.55-.26-23.12-.09-34.68-.08a9.606 9.606 0 0 0-1.66.26ZM84 54.92h-7.49c-.573-.04-1.147-.04-1.72 0-4.17.58-7.07-.81-10.14-4.08-7.65-8.2-17.59-10.67-28.37-7.7-10.94 3-17.94 10.27-20.28 21.51-3.19 15.06 8.51 30.64 24 32.25C50.26 98 59 95 66 87.24a8.57 8.57 0 0 1 .72-.64h17.8c-2.07 3.32-3.54 6.34-5.61 8.88C68.42 108.4 54.67 114.16 38.26 112 21 109.81 8.62 100.4 2.54 83.92-6 60.66 8 35.81 31.86 29.47c19.6-5.2 38.25 1.94 49.1 18.19 1.35 2 2.36 4.26 3.52 6.4l-.48.86ZM426.76.36v110.05h-15.48c-.07-.9-.19-1.68-.19-2.47v-95C411 3.51 418 .17 425.34 0c.485.066.962.187 1.42.36ZM112.21 110.44h-15.5c-.07-1-.17-1.82-.17-2.61 0-31.58 0-63.15-.05-94.73 0-8.3 6.19-13.83 15.72-12.75v110.09ZM209.55 144.68l2.17.26c-.06.84-.12 1.6-.22 2.92l-5.59-1a10.363 10.363 0 0 1-7.89.76 4.724 4.724 0 0 1-3.57-4.74 4.295 4.295 0 0 1 3.31-4.6 32.147 32.147 0 0 1 4.83-.73c1.19-.16 2.38-.28 3.44-.4.74-1.84 0-2.64-1.35-3.08-3.25-1-5.39-.06-7.17 3.46l-2.14-.16c-.28-3.56 1.28-5.69 4.37-6.23a16.31 16.31 0 0 1 2.69-.29c5.29-.08 7.12 1.73 7.12 7 .01 2.2 0 4.41 0 6.83Zm-3.45-4.46c-2.37.21-4.64.29-6.88.65-1.67.27-2.36 2.76-.95 3.27a11.34 11.34 0 0 0 5.79.25c1.65-.33 2.76-1.72 2.04-4.17ZM286.9 140.73h-13.31a4.465 4.465 0 0 0 3.92 4.22c3.12.61 5.49-.49 6.62-3.71h2.66c-.383 3.908-3.707 6.923-7.634 6.923-.458 0-.915-.041-1.366-.123-5.25-.72-8.16-4.57-7.49-9.9.506-4.133 4.055-7.274 8.219-7.274.496 0 .992.045 1.481.134 4.79.64 7.7 4.48 6.9 9.73Zm-3.27-3.28c-1.22-2.88-3.21-4-6-3.51-1.8.33-3.39 1.06-3.59 3.51h9.59ZM422.59 140.65h-13.3c0 2.65 1.56 3.69 3.41 4.24 3 .89 4.78-.06 7.32-3.67a6.555 6.555 0 0 1 1.09-.14 6.75 6.75 0 0 1 1.13.18c-.13 4.07-3.65 7-8.08 6.83-5.32-.19-8.74-4-8.36-9.42.221-4.357 3.867-7.822 8.229-7.822.338 0 .676.021 1.011.062 5.02.49 8.13 4.26 7.55 9.74Zm-13.28-3.28h9.87a4.391 4.391 0 0 0-4.26-3.48c-2.51-.2-4.51.55-5.61 3.48ZM373.72 137.13l-2.31.15c-1.85-3.27-3-3.95-6.11-3.31-.93.19-1.71 1.11-2.56 1.7l.29 1.13c2.17.43 4.34.89 6.52 1.28 2 .37 3.79 1 4.53 3.22a4.508 4.508 0 0 1-2.17 5.66 10.808 10.808 0 0 1-9.94-.07c-2-1-2.8-2.84-2.6-5.38l2.21-.2c1.9 3.5 4.58 4.68 7.91 3.55 1.46-.49 2.16-1.43 1.26-3.41-1.94-.33-4.08-.68-6.22-1.07-3.07-.56-4.69-2.1-4.72-4.44-.03-2.34 1.89-4.34 5-4.86 4.78-.82 8.23.95 8.94 4.61.032.48.022.962-.03 1.44ZM187.93 141.53c-3-.5-5.17-.8-7.33-1.22-2.81-.55-4.21-2-4.3-4.26a4.609 4.609 0 0 1 4.07-4.78 16.496 16.496 0 0 1 6.26.3c2.49.63 3.52 2.69 3.45 5.53l-2.25.21c-1.71-3.23-3.62-4.23-6.56-3.26-.82.27-1.38 1.28-2.06 1.94l.38.85c2 .4 4.1.81 6.15 1.2 3.36.62 5 2.18 5 4.73 0 2.72-1.63 4.57-5.07 4.95a17.245 17.245 0 0 1-6.47-.51c-2.62-.73-3.62-2.79-3.28-5.7h2.32l1.11 2.39c2.24 1.39 6.15 1.69 7.43.42.56-.55.66-1.53 1.15-2.79ZM240.58 139.54c-.052 4.709-3.941 8.554-8.649 8.554-.087 0-.174-.001-.261-.004-4.607-.161-8.31-3.995-8.31-8.605 0-4.723 3.887-8.61 8.61-8.61 4.723 0 8.61 3.887 8.61 8.61v.055Zm-8.8 5.52.11.001c3.072 0 5.6-2.528 5.6-5.6 0-3.072-2.528-5.6-5.6-5.6-3.072 0-5.6 2.528-5.6 5.6v.029a5.07 5.07 0 0 0-.01.326c0 2.88 2.37 5.25 5.25 5.25.083 0 .167-.002.25-.006ZM260.44 147.44h-3.22v-9.1c0-3.7-1.38-4.86-5-4.45a4.018 4.018 0 0 0-3.86 4.23c-.1 3 0 6 0 9.25l-2.93.16v-16.22l3.66.54c.949-.35 1.922-.634 2.91-.85 5-.83 8.19 1.66 8.44 6.68.13 3.15 0 6.32 0 9.76ZM323.84 140.76l2.29.19c-.18 4.38-3.68 7.29-8.23 7.13-4.687-.052-8.516-3.922-8.516-8.61 0-4.724 3.887-8.611 8.611-8.611l.095.001c4.61 0 7.74 2.57 7.78 6.6l-2.1.23c-2.16-3.42-4.47-4.49-7.43-3.61a5.604 5.604 0 0 0-3.82 5.67 5.514 5.514 0 0 0 4.1 5.21c3.2.67 5.15-.39 7.22-4.2ZM351.66 131.52h2.9v16l-3.77-.4a26.105 26.105 0 0 1-3.43.87c-4.49.57-7.56-1.87-7.85-6.35-.18-2.77-.07-5.56-.05-8.34.053-.582.146-1.161.28-1.73l2.82-.17v8.83c0 3.66 1 4.77 4 4.8 3.38 0 5-1.49 5-4.85.14-2.74.1-5.51.1-8.66ZM306.71 131.65l-6.38 7.41 6.88 8.06a3.716 3.716 0 0 1-5-1.21c-1.17-1.47-2.49-2.81-3.74-4.2-3.29 1.42-3.84 6.79-9.29 5.66l7-8.26-6.36-7.36c5.08-1.56 5.69 3.36 8.5 4.65 2.74-1.19 3.35-6.11 8.39-4.75ZM385.55 131.46h3.3l5.47 11.62c1.92-4.11 3.66-7.82 5.44-11.61h3.32l-7.51 16h-2.5l-7.52-16.01ZM215.75 125.63l2.52.15v21.6l-2.52.21v-21.96ZM333.8 147.45h-2.58v-21.62l2.58-.18v21.8ZM379 147.57v-15.81a6.18 6.18 0 0 1 1.25-.41c.476.019.948.086 1.41.2v15.82l-2.66.2ZM381.69 130.17h-2.64v-4.39l2.64-.13v4.52Z" style="fill:#252532;fill-rule:nonzero"/></svg>