<svg xmlns="http://www.w3.org/2000/svg" viewBox="0 0 512 98" xml:space="preserve" style="fill-rule:evenodd;clip-rule:evenodd;stroke-linejoin:round;stroke-miterlimit:1.41421"><path d="M85 0c-.07 14.3-.16 28.6-.19 42.9v46.9c0 1.78-.15 3.57-.27 6.2H0V0h85ZM45.89 17.47c-2.17-.42-4.08-.86-6-1.14-6.46-.94-12.58.35-18.49 2.88-3.27 1.4-4.71 3.79-4.64 7.46.14 7.79 5.46 12.84 13.79 13.34 3.54.21 7.44.62 10.44 2.27 5.35 2.95 8.8 7.89 11 13.73 2.62 7 2.34 14.07 1.68 21.21-.62 6.57 2.33 11.29 7.4 14.78 6.29 4.4 15.22.55 15.75-7.13a22.52 22.52 0 0 0-2.62-11.82A69.858 69.858 0 0 1 67 52a241.596 241.596 0 0 0-6.63-25.49c-1.52-4.87-5.18-8-11.41-7.76 3.27-2.17 3.58-4.36 1.19-6.47-2.39-2.11-4.44-1.85-6.25 1l1.99 4.19ZM25.72 4.74C23.4 2.66 21.2.67 18.14 3.83l-.83 4.31A33.618 33.618 0 0 0 14 5.75C11.12 4.18 8.84 5 7.48 8c-1.64 3.56.64 10 4.15 11.73.826.433 1.746.66 2.679.66A5.789 5.789 0 0 0 20 15.57c.22-.94.31-1.91.44-2.8l4.77-1.32 7.49 1 7.38 2.34 1.29-1.15c-.42-1.72-.29-4.18-1.38-5-1.68-1.23-4.19-1.31-7.4-2.16C30.6 3.8 30.6 3.8 25.72 4.74ZM419 98c-10.28-3-19-8.29-23.91-18.15C387 63.61 386.71 47 395 30.86c5.95-11.67 15.9-18.46 29.28-18.47 13.16 0 22.64 6.86 29.18 18 9.16 15.58 7.75 39.67-2.94 54C445 91.69 437.45 95.51 429 98h-10Zm16.45-43h-.66a112.13 112.13 0 0 0-.09-11.45 49.872 49.872 0 0 0-2.31-10.65c-1.22-3.6-3.53-6.56-7.86-6.53-4.33.03-6.45 3-8 6.52a22.903 22.903 0 0 0-1.41 4.76c-2 10.87-1.83 21.82-.57 32.74a25.386 25.386 0 0 0 2.82 8.94c3.28 6 10.64 6 14 0a21.869 21.869 0 0 0 2.48-7.51c.78-5.53 1.15-11.17 1.6-16.82ZM137 98c-2.88-.76-5.82-1.35-8.64-2.3-14.64-4.91-23.48-17.73-24-34.55-.81-29 20.81-50 50.41-48.77 3.15.13 6.3.51 9.43.95 1.654.329 3.287.756 4.89 1.28v12.14c-3.92-.86-7.42-2-11-2.36-12.4-1.1-23.12 5.4-27.58 17.17-4.85 12.82-3.65 25.21 4.6 36.47 2.89 4 6.84 6.13 12.33 5.29V61.94l-9.64-.62V48h31.56v45.61L152 98h-15ZM512 96h-47.81V16.18h22.19l1.77 2.54c9.68.13 14 3.32 14.21 10.31.19 7.24-3.88 10.45-14.72 11.32V81H512v15Zm-19.62-75.28a8.547 8.547 0 0 0-.847-.042c-4.557 0-8.353 3.648-8.533 8.202-.022.25-.033.5-.033.751 0 4.595 3.748 8.391 8.343 8.449 4.831.177 8.986-3.567 9.31-8.39.001-4.652-3.605-8.577-8.24-8.97ZM353.08 18.75c3.2 12.2 6.22 23.74 9.25 35.28l1 .1c3.85-16 7.7-32.08 11.61-48.35L395.46 1l-21.92 94.83h-22.11c-2-8.84-4.05-17.8-6.08-26.77h-1c-2.32 8.89-4.63 17.78-7 26.87h-19.79c-6.29-26.37-12.61-52.83-19-79.8h23.39c3 12.727 6 25.46 9 38.2l.8.13c1-3.14 2.31-6.22 3.06-9.42a41.286 41.286 0 0 0 1.56-10.63c-.11-3.39-1.43-6.75-2.39-10.83l19.1-4.83ZM293.61 16.18v79.55h-23.48v-33h-14v33.12h-23.77V16.14h23.41v29.12h13.86V16.18h23.98ZM177.16 16h48.19v12.31h-25.29v19.5h21.8v14H200.5v21.33h26.28v12.68h-49.62V16Z" style="fill:#252532;fill-rule:nonzero"/><path d="M489.11 33.08v-8.52h3.77c.374 0 .744.085 1.08.25.327.158.619.379.86.65.24.269.433.577.57.91.327.83.249 1.766-.21 2.53a2.446 2.446 0 0 1-1.13 1l1.95 3.2h-1.86l-1.74-2.85h-1.63v2.85l-1.66-.02Zm1.66-4.3h2.07a.922.922 0 0 0 .43-.11c.133-.075.249-.177.34-.3.1-.13.178-.275.23-.43.052-.175.079-.357.08-.54.002-.19-.029-.38-.09-.56a1.534 1.534 0 0 0-.26-.43 1.243 1.243 0 0 0-.37-.29 1 1 0 0 0-.43-.1h-2v2.76Z" style="fill:#252532;fill-rule:nonzero"/></svg>