<svg xmlns="http://www.w3.org/2000/svg" viewBox="0 0 476 105" xml:space="preserve" style="fill-rule:evenodd;clip-rule:evenodd;stroke-linejoin:round;stroke-miterlimit:1.41421"><path d="M155 105a9.013 9.013 0 0 1 1.13-9.47c3-3.73 6-7.75 9.89-10.3 10.34-6.79 21.85-10.62 34.39-10.35 10.65.22 21.33.37 31.93 1.31 5.71.51 9-2.08 11.2-6.35 1.7-3.33 2.47-7.18 3.36-10.87 1.71-7.1 3-14.29 4.87-21.35 1.25-4.79 4.31-8.57 8.07-11.77 5.7-4.84 10.92-10.76 18.69-11.91 5.83-.86 11.86-.46 17.79-.29a4.264 4.264 0 0 1 3.24 2.45c.25 1-.86 2.73-1.83 3.66-3.88 3.7-5.19 3.69-10.39 1.29a22.598 22.598 0 0 0-6.2-1.79c-9.22-1.32-13.49 1.12-16.16 10a229.224 229.224 0 0 0-5.66 23.27c-1.81 9.51-6 17.18-14.48 22.23-.538.38-1.037.812-1.49 1.29-.1.09-.09.31-.28 1.12 4.89.77 9.72 1.85 14.61 2.22 10.07.75 20.17 2.64 30.25-.47 5.45-1.68 10.76-3.47 15.1-7.37a14.618 14.618 0 0 1 2.45-1.47l.95.57c-.39 1-.52 2.25-1.21 2.92-9.22 9-19.77 15.68-33 15.41-13.63-.28-27.28-1.17-40.83-2.6-16.92-1.79-33.8-3.52-50.83-2.41a42 42 0 0 0-9.76 1.77c-5 1.58-6.31 3.87-6.78 9.16a9.074 9.074 0 0 1-2.34 4.53A77.74 77.74 0 0 1 156 105h-1ZM438 0c-.48 2.38-.6 4.91-1.5 7.12-6.27 15.22-12.7 30.37-19 45.55-.67 1.59-1.14 3.27-1.7 4.92l.93.6c2.38-2 4.71-4.08 7.15-6 2.73-2.16 5.38-4.54 8.43-6.12a6.881 6.881 0 0 1 5.87.09c.93.61.89 3.73.34 5.42-1.06 3.3-2.84 6.37-4.22 9.57-.57 1.33-.88 2.76-1.63 5.15l9.85-2.56.45.84c-.52.68-.91 1.74-1.59 2-4.21 1.55-8.48 3-12.75 4.32a7.285 7.285 0 0 1-2.47.19c-3.87-.16-4.86-1.45-3.53-5 1.15-3.11 2.63-6.1 3.95-9.15.36-.84.65-1.71 1.33-3.51-1.59.8-2.39 1-2.89 1.49-4.89 4.87-11.49 7.77-15.19 14.15-1.66 2.86-5.54 2.34-9.28 1.63.61-1.74 1.07-3.28 1.69-4.75 8.56-20.2 17.19-40.38 25.68-60.62C429 2.75 430.4 1.14 433.3.97A10.81 10.81 0 0 0 436 0h2ZM459 0c1.25.76 2.57 1.41 3.73 2.28 4.29 3.195 5.339 9.271 2.37 13.72-2.92 4.64-8 5.81-13.08 3 1.15.11 2.29.26 3.43.33a9.024 9.024 0 0 0 9.32-6c1.407-4.244-.488-8.928-4.45-11a8.514 8.514 0 0 0-10.41 2c-2.909 3.401-3.005 8.43-.23 11.94.79 1 1.68 1.95 2.53 2.92-4-.85-5.44-4-6-7.49-.65-3.87 1-7.08 4.07-9.47A34.723 34.723 0 0 1 454 0h5ZM102.5 45.59a183.548 183.548 0 0 1-21.63 38.12c3.78 2.18 7.23 4.49 10.94 6.29 7 3.35 14.16 6.62 21.41 9.48a20.637 20.637 0 0 0 13.27.77 6.173 6.173 0 0 0 2.73-1.13 55.165 55.165 0 0 0 3.78-4.85 56.507 56.507 0 0 0-4.71-3.17c-.78-.43-1.84-.33-3.26-.54 2.3-3.56 5.35-4 8.52-3.26a6.755 6.755 0 0 1 5.53 5.7c.54 3.24-.35 5.86-3.23 7.77-6.34 4.21-13.29 4.51-20.16 2.38-12.54-3.9-25-8.18-37.3-12.63-3.23-1.17-5.67-1.39-8.75.46-11 6.6-22.93 7.61-35.15 4a15.278 15.278 0 0 1-6.61-4.13 8.484 8.484 0 0 1-2.471-5.984 8.49 8.49 0 0 1 4.711-7.596A31.241 31.241 0 0 1 40 74.14a49.741 49.741 0 0 1 24.1 2.56c3 1 5.91 2.13 9.62 3.46l10.21-20.51L66.79 65a109.166 109.166 0 0 1-32.42 5.2 55.46 55.46 0 0 1-20.48-3.76C.85 61.39-3.34 42.9 2.74 32.5a49.465 49.465 0 0 1 16.59-16.92C34.82 5.73 52.11 2.77 70 3.18c10.69.25 21 3.41 30.85 7.65 3.21 1.39 3.42 3.37.56 5.39-4.41 3.1-9.19 2.33-13.91.9-4.72-1.43-9.43-3.28-14.25-4.57C63.68 10 53.86 8.79 44 10.13 31.31 11.86 20.41 17.25 13.9 29c-7 12.61-1.57 26.19 12 31.16 12.49 4.57 25.17 4.26 37.9 1.47 5.18-1.14 10.2-3 15.35-4.33a12.009 12.009 0 0 0 8.47-7c2-4.29 7.56-6.78 12.14-6.06a12.29 12.29 0 0 1 2.74 1.35Zm-34.79 42.3.06-1.46c-5-1.47-10-3.4-15.15-4.28-4.17-.71-8.56-.36-12.83-.09-2.28.15-4.37 1.87-4.27 4.18.08 1.87 1.42 3.82 2.59 5.48.58.82 2 1.23 3 1.54 9.89 2.74 18.7.79 26.6-5.37ZM356.25 66.12a24.742 24.742 0 0 1-4.5 2.57c-2.92 1-6 2.18-8.95 2.12-4.3-.1-6.1-2.65-5.92-7 .25-5.94 3.56-10.33 7.85-13.92 6.06-5.08 13-7.2 20.89-4.87a15.548 15.548 0 0 1 5.38 3.19c-3.41.76-6.78 3.42-9.76-.61-.28-.38-2-.09-2.75.36-4.58 2.66-8.27 6.26-9.81 11.44-.45 1.5-.28 4 .69 4.95 1.84 1.77 3.79-.1 5.06-1.49a39.261 39.261 0 0 0 5.38-7.15c2.63-4.76 6.69-5.3 12.25-4.9l-5.76 15.57 9.33-2.6.6 1a9.749 9.749 0 0 1-2.06 2.13 23.82 23.82 0 0 1-5.48 2.35c-2.93.72-4.45 2.58-5.4 5.24a24.687 24.687 0 0 1-10.92 13.19A18.339 18.339 0 0 1 344 90c-4.5.13-5.8-2.16-4.32-6.55a15.682 15.682 0 0 1 7.32-9.08c2.18-1.21 4.54-2.1 6.64-3.42a26.407 26.407 0 0 0 3.72-3.4l-1.11-1.43Z" style="fill:#252532;fill-rule:nonzero"/><path d="M197.75 51.33c-1.1 2.81-2 5.19-3 7.54-1 2.35-2.06 4.67-3.1 7l.84.75 10.06-3.08c-.85 1.88-1 3.15-1.58 3.35-4.65 1.72-9.31 3.48-14.1 4.74-4.07 1.06-5.36-2.17-6.36-5.64-1.69 1-3 2.23-4.5 2.69-3.27 1-6.67 2.34-10 2.28-5.88-.11-8.44-4.56-6.3-10.11a21.838 21.838 0 0 1 9.91-11.51c7.54-4.2 15.44-6.13 23.89-2.74.763.317 1.488.719 2.16 1.2.467.479.88 1.009 1.23 1.58-3.82-.12-7.11 2.79-10.43-.76-.57-.6-2.64-.36-3.68.15a22.006 22.006 0 0 0-10.2 9.88 3.547 3.547 0 0 0-.6 1.87c.26 1.52.36 3.41 1.31 4.36.56.55 2.73-.2 4-.77a8.22 8.22 0 0 0 2.58-2.29 65.584 65.584 0 0 0 4.75-5.82c3.02-4.45 7.3-5.19 13.12-4.67ZM313.86 70.53c-.36-6.14 3.51-10.78 4.22-16.68a27.912 27.912 0 0 0-3.33 2.44c-3.72 3.58-7.67 7-10.92 11-3 3.63-6.38 4.3-11.14 3.6a35.86 35.86 0 0 1 1.19-5.26c1.67-4.35 3.48-8.64 5.32-12.92 3.09-7.16 3.19-7.2 11.91-7 .84 4.54-3.3 7.72-3.57 13.16 2.21-1.85 3.76-3.13 5.3-4.43 2.8-2.35 5.42-5 8.45-7 2.24-1.48 4.91-3.28 7.81-1.07 2.11 1.62 2.23 4.43.37 8.26-1.16 2.39-2.51 4.69-3.68 7.08-.63 1.27-1.07 2.65-1.59 4l.68.92 9.79-3.18c-3.67 5.29-14.87 9.07-20.81 7.08ZM215 67.25l12.15-3.58.44 1c-.45.63-.79 1.65-1.38 1.83-5.39 1.7-10.71 3.8-16.21 4.57-5.27.75-7.32-2.91-5.19-8.09 1.69-4.13 3.53-8.2 5.77-13.36l-8.1 1.5-.59-1c1.14-.73 2.23-2 3.44-2.12 6.4-.71 9.39-4.76 10.95-10.45a24.138 24.138 0 0 1 1.37-3.2c2.75-6.37 5.42-7.41 12.92-4.73l-7.29 15.1 6.14 1c-.43 3.1-2.2 4.23-4.8 4-3.07-.31-4.56 1.26-5.55 3.85-1.64 4.25-3.37 8.47-5.06 12.7l.99.98ZM388.77 67.25l11.86-3.61.57 1.07c-.7.77-1.27 2-2.14 2.24-4.88 1.55-9.75 3.43-14.77 4.15-5.72.81-8-2.62-5.93-8 1.38-3.56 3.08-7 4.58-10.49.311-.929.562-1.878.75-2.84L375.87 51l-.44-1.2c1.45-.74 2.83-1.91 4.35-2.15 5.19-.8 8.27-3.58 9.5-8.68a32.92 32.92 0 0 1 2.09-5.06c2.25-5.23 3-5.75 8.58-5.54 1.5.15 2.989.391 4.46.72-2.59 5.39-5 10.38-7.52 15.66l6.26 1.08c-.8 2.72-2.23 4.15-4.71 3.86-3.33-.4-4.82 1.42-5.88 4.13-1.62 4.12-3.32 8.21-5 12.31l1.21 1.12ZM274.2 67c6 1.63 11.46-2.23 17.64-1.74a9.31 9.31 0 0 1-2.43 1.74 502.949 502.949 0 0 1-16.27 4.61 10.59 10.59 0 0 1-3.47.16c-6.63-.53-9.58-5.09-6.83-11.14 3.59-7.89 9.73-13 18.33-14.62a19.693 19.693 0 0 1 7.37-.22c5.45 1.09 7.33 5.87 3.78 10.06a25.45 25.45 0 0 1-7.84 5.81c-3.31 1.7-7 2.67-10.52 4l.24 1.34Zm.09-5.5c6.13-1.74 9.75-6.21 9.26-11.46-5.16 2.36-8.55 6.54-9.26 11.47v-.01ZM139 67c6 1.79 11.43-2.32 18.42-2.56-1.44 1.35-2 2.24-2.7 2.46a602.07 602.07 0 0 1-17.21 4.85 9.614 9.614 0 0 1-3.47.05c-6-.63-9-5.09-6.63-10.59a24.493 24.493 0 0 1 18.48-15.11 19.597 19.597 0 0 1 7.85-.12c5.14 1.13 6.84 5.84 3.43 9.86a25.695 25.695 0 0 1-7.8 5.87c-3.31 1.71-7 2.66-10.52 3.94L139 67Zm10.25-17.28c-6.26 2.65-10 7.35-10 12.23 5.46-2.13 8.56-5.95 10.03-12.27l-.03.04ZM117.93 49.1c1.78-1.2 3.42-2.83 5.39-3.49a6.262 6.262 0 0 1 5 .59c.83.6.85 3 .44 4.45-1.85 6.35-4.7 8.35-12.76 9.08l.8-4.48c-4.1 2.37-5.9 6.13-7.55 10.36 4.91 3.34 9.7-3.12 14.58-.17-.36.67-.49 1.34-.82 1.46-6.41 2.33-12.94 4.34-19.86 3.94-4.79-.28-5.74-2-4-6.57 1.927-4.96 3.97-9.867 6.13-14.72 1.55-3.5 7.76-5.93 11-4.17.98.46 1.11 2.31 1.65 3.72ZM453.76 53.21c-.3 3.58-.77 5.88-.59 8.13a12.788 12.788 0 0 0 1.8 5.47 3.673 3.673 0 0 0 3.34 1.19 3.833 3.833 0 0 0 2.07-3 19.785 19.785 0 0 0-1.52-6.18c-3.62-9.16 2.64-17.75 12.53-16.83 1.57.14 3.87 1.29 4.27 2.5.4 1.21-.8 3.3-1.78 4.68-1.08 1.53-2.68 1.8-4.21.2-.84-.88-1.83-1.61-2.75-2.42l-.87.55c.73 1.93 1.44 3.86 2.18 5.78 3.16 8.14 1.81 12.38-5.88 16.37a20.808 20.808 0 0 1-8.55 2.11c-6.13.24-10-4-9.48-10.1a6.809 6.809 0 0 1 2.18-4.19c1.84-1.47 4.15-2.47 7.26-4.26ZM454.54 11.28c-.25 1.38-.49 2.75-.74 4.13h-.59V4.58c2.91-.13 6.05-1.12 7.59 2 .58 1.16-.8 3.31-2.18 4.92l2.1 4.14c-.47.08-1.11.34-1.23.19-1.26-1.63-2.45-3.32-3.66-5l-1.29.45Z" style="fill:#252532;fill-rule:nonzero"/></svg>