<svg xmlns="http://www.w3.org/2000/svg" viewBox="0 0 5036 1207" xml:space="preserve" style="fill-rule:evenodd;clip-rule:evenodd;stroke-linejoin:round;stroke-miterlimit:2"><path d="M322.784 273.993 218.665 379.84c98.02 113.263 199.724 223.986 297.678 338.505l99.292 123.043v6.16c-24.586-1.207-46.63-4.828-67.4-4.828-23.316 0-46.499 3.62-68.608 4.827-27-39.371-53.901-76.43-84.551-112.055L128.048 421.649c-6.13-4.902-20.802-8.673-20.802-3.62v429.517c-19.565-1.206-36.586-4.827-53.61-4.827-18.325 0-36.585 3.62-53.639 4.827V5.935c17.054 1.232 35.314 4.65 53.64 4.65 17.023 0 34.044-3.418 53.609-4.65v380.013c1.141 7.392 18.325 2.464 30.617-7.416 22.077-17.172 47.771-42.967 64.956-60.24L504.149 5.91c15.913 1.232 31.89 4.65 49.009 4.65 14.708 0 30.62-3.418 47.706-4.65l-278.08 268.083ZM813.762 464.29h153.32c29.74 0 58.402-3.922 88.044-4.877-.978 7.894-3.49 16.82-3.49 25.795 0 7.895 2.512 16.82 3.49 27.781-29.642-.955-58.304-4.952-88.043-4.952h-153.32V798.62c60.389 2.011 119.703-1.986 179.08-4.073a677.708 677.708 0 0 0 91.01-8.95c-1.011 11.087-2.64 19.987-2.64 29.868 0 9.93 1.629 19.837 2.64 29.793h-357.32V167.896h351.353c-1.076 10.887-2.413 19.862-2.413 29.843 0 9.906 1.337 19.787 2.413 29.768-29.707-5.959-59.346-8.875-89.02-10.937l-98.998-2.011h-76.106v249.73Zm487.944-259.46c41.544-2.036 108.845-5.003 145.43.956 74.216 11.992 108.916 56.668 108.916 125.43 0 77.587-54.491 127.242-126.75 142.226-50.444 9.93-113.77 5.984-127.629 5.003V204.83h.033Zm-87.226 643.824c13.923-.956 28.727-3.42 43.598-3.42 13.89 0 27.748 2.464 43.628 3.42V516.307h37.564l79.173 93.552 116.802 152.407a3993.361 3993.361 0 0 1 62.391 86.362c17.951-.956 37.788-3.445 56.62-3.445 18.855 0 36.63 2.49 57.473 3.445l-18.932-24.715-47.467-55.738-204.127-259.787c99.943-18.027 203.146-73.766 203.146-189.215 0-100.516-67.505-151.226-219.973-151.226h-209.929v680.706h.033Zm949.796-311.126h-217.902l107.958-254.634 109.944 254.634Zm-74.268-384.74h-22.728l-308.864 695.84c10.861-.955 21.748-3.444 34.62-3.444 11.867 0 22.753 2.49 36.581 3.445 27.731-93.552 63.382-181.447 97.976-269.341h251.49c39.7 90.861 75.224 186.801 103.961 269.34 16.77-.955 33.564-3.444 52.395-3.444 16.82 0 32.684 2.49 51.39 3.445l-296.821-695.842Zm392.559 561.107c38.466 63.608 82.866 103.357 159.85 103.357 80.05 0 137.247-66.625 137.247-145.142 0-184.94-308.838-103.432-308.838-328.097 0-128.271 100.49-191.15 218.957-191.15 47.442 0 104.715 15.034 141.346 47.944-11.842 25.846-18.806 53.652-26.675 81.51h-9.956c-20.767-53.678-64.212-86.538-122.414-86.538-68.134 0-124.426 45.783-124.426 116.38 0 182.905 311.252 109.39 311.252 321.183 0 142.2-109.868 226.927-244.124 226.927-48.372 0-127.216-21.043-160.88-57.825 9.88-28.863 14.909-58.731 18.78-88.524h9.88v-.025Zm761.813 136.77c-15.84-1.006-29.667-2.866-43.621-2.866-14.833 0-29.742 1.86-43.57 2.866V215.69c-99.913 0-160.302 6.01-216.67 11.942.956-9.956 2.992-19.861 2.992-29.893 0-9.855-2.011-18.78-2.992-29.717h510.65c-1.031 10.937-4.224 19.862-4.224 29.717 0 10.032 3.193 19.937 4.223 29.893a1717.695 1717.695 0 0 0-206.814-11.942v634.974h.026Zm600.856-313.137H3627.26l107.908-254.634 110.07 254.634Zm-74.268-384.74h-22.853l-308.763 695.84c10.886-.955 21.772-3.444 34.595-3.444 11.891 0 22.803 2.49 36.63 3.445 27.707-93.552 63.282-181.447 97.952-269.341h251.49c39.548 90.861 75.375 186.801 103.96 269.34 16.82-.955 33.564-3.444 52.395-3.444 16.845 0 32.684 2.49 51.465 3.445l-296.87-695.842Zm391.529 561.107c38.491 63.608 82.79 103.357 159.85 103.357 80.05 0 137.247-66.625 137.247-145.142 0-184.94-308.964-103.432-308.964-328.097 0-128.271 100.616-191.15 219.033-191.15 47.492 0 104.764 15.034 141.37 47.944-11.892 25.846-18.83 53.652-26.675 81.51h-9.93c-20.767-53.678-64.212-86.538-122.465-86.538-68.158 0-124.375 45.783-124.375 116.38 0 182.905 311.101 109.39 311.101 321.183 0 142.2-109.642 226.927-244.023 226.927-48.322 0-127.241-21.043-160.83-57.825 9.805-28.863 14.833-58.731 18.78-88.524h9.88v-.025Zm602.692-249.605h153.363c29.667 0 58.328-3.922 88.07-4.877-.955 7.894-3.494 16.82-3.494 25.795 0 7.895 2.54 16.82 3.495 27.781-29.743-.955-58.404-4.952-88.071-4.952h-153.363V798.62c60.39 2.011 119.8-1.986 179.083-4.073a678.527 678.527 0 0 0 91.062-8.95c-1.005 11.087-2.59 19.987-2.59 29.868 0 9.93 1.585 19.837 2.59 29.793h-357.26V167.896h351.277c-.956 10.887-2.339 19.862-2.339 29.843 0 9.906 1.383 19.787 2.339 29.768-29.743-5.959-59.284-8.875-89.001-10.937l-99.033-2.011h-76.153v249.73h.025ZM845.39 107.205 957.267 0h72.26l-152.67 107.204H845.39Zm676.387 887.017a404.92 404.92 0 0 1 46.544.327c25.62 2.263 36.581 19.71 36.581 41.835 0 28.712-18.755 49.152-51.112 52.32a165.746 165.746 0 0 1-31.98 0v-94.482h-.033Zm0 107.279c8.118 0 29.096 2.262 43.653-.704 45.582-9.026 69.164-26.927 69.164-66.022 0-39.17-20.666-52.998-83.444-52.998h-57.84v220.767c4.5-.402 9.425-1.206 14.217-1.206 4.565 0 9.098.804 14.283 1.206v-101.043h-.033Zm577.709.352h-70.874l35.072-82.414 35.802 82.414Zm-24.211-124.3h-7.442l-100.667 224.916c3.57-.377 7.04-1.207 11.314-1.207 3.846 0 7.442.83 11.992 1.207 9.051-30.245 20.591-58.78 32.005-87.316h81.836c12.948 29.49 24.588 60.616 33.991 87.316 5.406-.377 10.887-1.207 17.046-1.207 5.506 0 10.736.83 16.82 1.207l-96.895-224.916Zm534.86 16.292c13.551-.654 35.6-1.584 47.568.327 24.261 3.897 35.6 18.403 35.6 40.628 0 25.117-17.825 41.157-41.408 45.984-16.493 3.193-37.21 1.986-41.76 1.66v-88.6Zm-28.41 208.624c4.55-.377 9.378-1.207 14.23-1.207 4.601 0 9.101.83 14.205 1.207v-107.882h12.294l25.87 30.446 38.266 49.504c6.763 9.101 13.124 18.102 20.189 27.932 5.807-.377 12.168-1.207 18.227-1.207 6.235 0 11.968.83 18.781 1.207l-6.134-7.945-15.538-18.102-66.298-84.525c32.684-5.733 65.971-23.709 65.971-61.069 0-32.533-21.797-48.976-71.502-48.976h-68.561v220.617Zm590.146-220.717c4.526.327 9.428 1.207 14.205 1.207 4.601 0 9.051-.88 14.23-1.207v220.767c-5.154-.402-9.629-1.207-14.23-1.207-4.751 0-9.68.805-14.205 1.207V981.752Zm479.65 176.97c12.621 20.642 27.278 33.49 52.42 33.49 26.122 0 44.903-21.597 44.903-46.89 0-59.811-101.245-33.438-101.245-106.046 0-41.434 33.187-61.798 71.83-61.798 15.486 0 34.317 4.827 46.285 15.437-3.872 8.472-6.16 17.372-8.724 26.448h-3.269c-6.889-17.322-21.018-28.032-40.1-28.032-22.25 0-40.705 14.858-40.705 37.636 0 59.083 101.899 35.35 101.899 103.835 0 45.984-36.003 73.237-79.925 73.237-15.84 0-41.76-6.763-52.772-18.655 3.243-9.302 4.827-18.982 6.11-28.661h3.293Z"/></svg>