<svg xmlns="http://www.w3.org/2000/svg" viewBox="0 0 194 105" xml:space="preserve" style="fill-rule:evenodd;clip-rule:evenodd;stroke-linejoin:round;stroke-miterlimit:1.41421"><path d="M155.58 26.1c-5.94-6.05-11.92-4.88-17.9-2.58-5.12 2-10.18 4.1-15.22 6.28-10.62 4.57-20.83 3.69-30.5-2.47-7-4.48-13.68-9.5-20.77-13.85-3.9-2.39-8.19-4.81-12.6-5.61C49.37 6.19 39 14.9 36.47 24c-1.19 4.21-5.17 7.63-7.69 11.15.33 5.46.69 11.26 1.1 18 4.18 0 8.92-.2 13.64 0 7.59.38 12.13 4.31 13.29 11.13.1.61-.07 1.26-1.33 2.86-.39-.88-.71-1.79-1.18-2.62-2.84-5.07-7.53-6.88-13-6.9-4 0-8 .57-12 .64-5.26.09-6.86-1.6-6.87-6.78a61.113 61.113 0 0 1 .81-12.18l-2.47-4.66c.32-.67.4-1.32.75-1.52 6.25-3.52 9.18-9 11.89-15.62C35.74 12 41.13 7.23 46.1 3.36 51.53-.87 58.49-.88 64.67 2.05S76.79 8.9 82.75 12.52c4.69 2.84 9.11 6.16 13.9 8.8 8.74 4.82 17.58 5 26.78.6a88.522 88.522 0 0 1 17.82-6.27c7.47-1.76 13.42 2.46 14.33 10.45ZM41.32 104.15h-7l-8.46-21.94c-3.12 8-5.75 14.79-8.48 21.82h-6.92C7 93.44 3.62 82.93 0 71.77h7.29l7 21.13c2.88-7.43 5.39-13.93 7.93-20.5h7.68L37.63 93c2.73-7.93 5-14.43 7.33-21.24h7.18l-10.82 32.39Z" style="fill:#252532;fill-rule:nonzero"/><path d="M53.21 18.9c3.22-4.07 7.19-4.52 11-3.06a53.527 53.527 0 0 1 10.39 5.77C81.09 26 87.19 30.9 93.86 34.93c8.94 5.39 18.54 5.8 28.31 2 7-2.73 13.83-5.77 21-7.91a27.626 27.626 0 0 1 11.74-.54c5.06.78 7.59 4.65 7.72 10.68-9.39-8.76-18.3-3.3-27.27.17-5 1.92-9.84 4.07-14.86 5.8-13.55 4.67-25.53 1.4-36.24-7.61-1.78-1.49-3.46-3.12-5.16-4.7C71.72 26 65.31 17.46 53.21 18.9Z" style="fill:#252532;fill-rule:nonzero"/><path d="M167.92 53.45c-7-8.7-14.9-6.38-22.7-3.47-6.22 2.33-12.22 5.29-18.43 7.69-18.37 7.11-34.19 3.48-47.47-11.3-4.08-4.54-8.77-8.53-14.09-13.65 2.58.38 4.92.1 6.49 1.07a59.286 59.286 0 0 1 10.73 8c12.66 12.58 27.06 14.38 43.24 8.21 8.83-3.39 17.72-6.8 26.86-9.13 7.87-2 14.41 2.52 15.64 9.38a17.335 17.335 0 0 1-.27 3.2ZM88.16 71.63c-.73 2.46-1.18 4-1.86 6.2H62.23v6.37H80v6.36H62.34v7.38H86.5c.62 2.23 1.06 3.84 1.67 6-9.93 0-19.18.4-28.34-.32-1.93-.16-4.74-4.27-5-6.82-.75-6.07-.37-12.29-.19-18.45.12-3.81 2.39-6.52 6.18-6.64 8.72-.28 17.5-.08 27.34-.08ZM193.82 104H186l-3.31-5.34H162l-3.6 5.35h-7.69c2.49-5.29 4.64-9.9 6.82-14.5 2-4.21 4.18-8.34 6-12.62 1.73-4.06 4.52-5.71 8.94-5.68 4.42.03 6.73 1.89 8.45 5.64 4.08 8.87 8.37 17.64 12.9 27.15Zm-29.67-12h16.18c-2.62-5.3-4.89-9.9-7.15-14.5h-1.86L164.15 92ZM98.52 98h19.79l1.9 5.9c-8.61 0-16.48.3-24.29-.26-1.56-.11-4-3.43-4.11-5.37-.45-8.6-.2-17.22-.2-26.37l6.91-.43V98ZM122.52 71.7h7V98h20.78c-1.23 2.68-2 4.38-2.9 6.34-6.39 0-12.54.15-18.68-.06-3.63-.12-6.07-2.35-6.16-6-.18-8.6-.04-17.28-.04-26.58Z" style="fill:#252532;fill-rule:nonzero"/></svg>